<svg width="78" height="21" viewBox="0 0 78 21" fill="none" xmlns="http://www.w3.org/2000/svg">
<path d="M11.0008 11.5195C8.91686 11.5195 7.10591 12.5407 6.02054 14.1876C6.02054 14.3499 6.02054 21 6.02054 21H0V0H6.02054C6.02054 0 6.02054 6.50428 6.02054 7.32143C7.5466 6.30104 9.15756 5.73529 11.0008 5.73529C12.8417 5.73529 14.4537 6.30104 15.9785 7.32143C15.9785 6.50439 15.9785 0 15.9785 0H22V21H15.9785C15.9785 21 15.9785 14.3499 15.9785 14.1876C14.8944 12.5407 13.0835 11.5195 11.0008 11.5195Z" fill="url(#paint0_linear_232_951)"/>
<path d="M31.3557 4.02061H27.7657V1.02881H26.0801V8.69013H27.7657V5.51597H31.3557V8.69013H33.0381V1.02881H31.3557V4.02061Z" fill="#0A2972"/>
<path d="M67.9448 1.46673C67.5933 1.82561 67.578 2.35304 67.5706 2.65945V8.69013H69.2522V6.24552H72.8262V8.69024H74.5156V1.02881H69.2625C68.7643 1.0341 68.2987 1.10568 67.9448 1.46673ZM69.6822 2.52525H72.8261V4.7481H69.2521V2.96252C69.2572 2.87485 69.2408 2.71689 69.3155 2.62177C69.3947 2.52298 69.5229 2.53054 69.6822 2.52525Z" fill="#0A2972"/>
<path d="M56.0287 1.02881H50.7651V8.69013H52.4511V2.52514H55.61C55.7688 2.53043 55.8971 2.52287 55.974 2.62177C56.0497 2.71679 56.0336 2.87485 56.0403 2.96252V8.69013H57.7251V2.65945C57.7148 2.35293 57.7009 1.82561 57.3499 1.46673C56.9955 1.10568 56.5303 1.0341 56.0287 1.02881Z" fill="#0A2972"/>
<path d="M47.5907 6.75351C47.585 6.84442 47.6003 6.99816 47.5264 7.09425C47.4464 7.19553 47.3164 7.18732 47.1617 7.19056H44.0029V1.02881H42.3181V8.69013H47.5791C48.0803 8.68441 48.5449 8.61045 48.8985 8.24973C49.2536 7.89074 49.2656 7.36633 49.2742 7.05852V1.02881H47.5906V6.75351H47.5907Z" fill="#0A2972"/>
<path d="M66.1718 2.65945C66.1646 2.35293 66.149 1.82561 65.798 1.46673C65.4465 1.10568 64.979 1.0341 64.4793 1.02881H60.9H59.2181V8.69013H64.4793C64.9791 8.68441 65.4465 8.61045 65.798 8.24973C66.149 7.89074 66.1646 7.36633 66.1718 7.05852V2.65945ZM64.4935 6.75351C64.4861 6.84442 64.5022 6.99816 64.4294 7.09425C64.3501 7.19553 64.2189 7.18732 64.0659 7.19056H60.9V2.52525H64.0659C64.2189 2.53054 64.3501 2.52298 64.4294 2.62188C64.5022 2.71689 64.4861 2.87496 64.4935 2.96263V6.75351Z" fill="#0A2972"/>
<path d="M37.6804 4.37982L35.6353 1.02881H33.6349L36.7799 5.85748V8.69013H38.5785V5.85748L41.7215 1.02881H39.7218L37.6804 4.37982Z" fill="#0A2972"/>
<path d="M76.2032 1.02881V2.52525V7.19229V8.69013H78V7.19229V2.52525V1.02881H76.2032Z" fill="#0A2972"/>
<path d="M59.886 18.0016V11.8818H58.1349V19.5428H63.8598V18.0016H59.886Z" fill="#0A2972"/>
<path d="M44.2885 13.4695H48.8623V11.8818H42.5378V19.5428H48.8623V17.9555H44.2885V16.4322H48.2603V14.9925H44.2885V14.9817V13.4695Z" fill="#0A2972"/>
<path d="M52.0859 13.4695H56.662V11.8818H50.3365V19.5428H56.662V17.9555H52.0859V16.4322H56.0595V14.9925H52.0859V14.9817V13.4695Z" fill="#0A2972"/>
<path d="M31.488 14.9123H28.183C27.8976 14.9123 27.7569 14.7682 27.7569 14.4785V13.8109C27.7569 13.5836 27.8976 13.4695 28.183 13.4695H32.8104V11.8818H27.7661C26.6419 11.8818 26.0801 12.4236 26.0801 13.5069V14.9317C26.0801 15.9773 26.6169 16.5005 27.6911 16.5005H30.9788C31.2633 16.5005 31.4055 16.6458 31.4055 16.9345V17.6131C31.4055 17.841 31.2633 17.9555 30.9788 17.9555H26.1476V19.5429H31.4054C32.5346 19.5429 33.1002 18.998 33.1002 17.9093V16.482C33.1003 15.4357 32.5631 14.9123 31.488 14.9123Z" fill="#0A2972"/>
<path d="M34.1986 11.8818V13.4695H36.8004V19.5428H38.5513V13.4695H41.1533V11.8818H34.1986Z" fill="#0A2972"/>
<defs>
<linearGradient id="paint0_linear_232_951" x1="11" y1="21.5649" x2="11" y2="-0.159599" gradientUnits="userSpaceOnUse">
<stop stop-color="#0A2972"/>
<stop offset="1" stop-color="#00A0C8"/>
</linearGradient>
</defs>
</svg>
