<svg width="168" height="45" viewBox="0 0 168 45" fill="none" xmlns="http://www.w3.org/2000/svg">
<g clip-path="url(#clip0_482_7488)">
<path d="M23.6423 24.3383C19.1637 24.3383 15.2717 26.4958 12.939 29.9753C12.939 30.3183 12.939 44.3686 12.939 44.3686H0V0H12.939C12.939 0 12.939 13.7422 12.939 15.4686C16.2188 13.3128 19.681 12.1175 23.6423 12.1175C27.5987 12.1175 31.0632 13.3128 34.3401 15.4686C34.3401 13.7424 34.3401 0 34.3401 0H47.2813V44.3686H34.3401C34.3401 44.3686 34.3401 30.3183 34.3401 29.9753C32.0103 26.4958 28.1183 24.3383 23.6423 24.3383Z" fill="url(#paint0_linear_482_7488)"/>
<path d="M67.5357 8.67149H59.8035V2.21875H56.1729V18.7427H59.8035V11.8967H67.5357V18.7427H71.1594V2.21875H67.5357V8.67149Z" fill="#0A2972"/>
<path d="M146.343 3.16326C145.586 3.93731 145.553 5.07486 145.537 5.73574V18.7427H149.159V13.4702H156.857V18.743H160.495V2.21875H149.181C148.108 2.23016 147.105 2.38455 146.343 3.16326ZM150.085 5.44628H156.856V10.2405H149.158V6.38939C149.169 6.2003 149.134 5.85962 149.295 5.65447C149.465 5.44139 149.742 5.45769 150.085 5.44628Z" fill="#0A2972"/>
<path d="M120.677 2.21875H109.34V18.7427H112.972V5.44605H119.775C120.118 5.45746 120.394 5.44116 120.559 5.65447C120.723 5.85939 120.688 6.2003 120.702 6.38939V18.7427H124.331V5.73574C124.309 5.07463 124.279 3.93731 123.523 3.16326C122.76 2.38455 121.758 2.23016 120.677 2.21875Z" fill="#0A2972"/>
<path d="M102.503 14.5658C102.49 14.7619 102.524 15.0935 102.364 15.3007C102.192 15.5192 101.912 15.5015 101.579 15.5085H94.7753V2.21875H91.1465V18.7427H102.478C103.557 18.7304 104.558 18.5709 105.32 17.7929C106.084 17.0186 106.11 15.8876 106.129 15.2237V2.21875H102.503V14.5658H102.503Z" fill="#0A2972"/>
<path d="M142.524 5.73574C142.508 5.07463 142.475 3.93731 141.719 3.16326C140.962 2.38455 139.955 2.23016 138.879 2.21875H131.169H127.547V18.7427H138.879C139.955 18.7304 140.962 18.5709 141.719 17.7929C142.475 17.0186 142.508 15.8876 142.524 15.2237V5.73574ZM138.909 14.5658C138.893 14.7619 138.928 15.0935 138.771 15.3007C138.6 15.5192 138.318 15.5015 137.988 15.5085H131.169V5.44628H137.988C138.318 5.45769 138.6 5.44139 138.771 5.6547C138.928 5.85962 138.893 6.20054 138.909 6.38963V14.5658Z" fill="#0A2972"/>
<path d="M81.1582 9.44623L76.7533 2.21875H72.4448L79.2187 12.6332V18.7427H83.0925V12.6332L89.8622 2.21875H85.5551L81.1582 9.44623Z" fill="#0A2972"/>
<path d="M164.13 2.21875V5.44628V15.5122V18.7427H168V15.5122V5.44628V2.21875H164.13Z" fill="#0A2972"/>
<path d="M128.985 38.8261V25.627H125.214V42.1502H137.544V38.8261H128.985Z" fill="#0A2972"/>
<path d="M95.3908 29.0513H105.242V25.627H91.6201V42.1502H105.242V38.7266H95.3908V35.4411H103.945V32.3361H95.3908V32.3128V29.0513Z" fill="#0A2972"/>
<path d="M112.185 29.0513H122.042V25.627H108.417V42.1502H122.042V38.7266H112.185V35.4411H120.744V32.3361H112.185V32.3128V29.0513Z" fill="#0A2972"/>
<path d="M67.8206 32.1631H60.7023C60.0875 32.1631 59.7844 31.8522 59.7844 31.2274V29.7876C59.7844 29.2974 60.0875 29.0513 60.7023 29.0513H70.6689V25.627H59.8042C57.3829 25.627 56.1729 26.7955 56.1729 29.1318V32.205C56.1729 34.4601 57.329 35.5885 59.6427 35.5885H66.724C67.3367 35.5885 67.6431 35.902 67.6431 36.5246V37.9882C67.6431 38.4798 67.3367 38.7266 66.724 38.7266H56.3182V42.1505H67.6428C70.0749 42.1505 71.2931 40.9752 71.2931 38.627V35.5487C71.2933 33.292 70.1362 32.1631 67.8206 32.1631Z" fill="#0A2972"/>
<path d="M73.6587 25.627V29.0513H79.2627V42.1502H83.0338V29.0513H88.638V25.627H73.6587Z" fill="#0A2972"/>
</g>
<defs>
<linearGradient id="paint0_linear_482_7488" x1="23.6406" y1="45.5621" x2="23.6406" y2="-0.337199" gradientUnits="userSpaceOnUse">
<stop stop-color="#0A2972"/>
<stop offset="1" stop-color="#00A0C8"/>
</linearGradient>
<clipPath id="clip0_482_7488">
<rect width="168" height="44.3686" fill="white"/>
</clipPath>
</defs>
</svg>
