<svg width="168" height="47" viewBox="0 0 168 47" fill="none" xmlns="http://www.w3.org/2000/svg">
<g clip-path="url(#clip0_1239_177)">
<path d="M23.6423 25.9226C19.1637 25.9226 15.2717 28.1572 12.939 31.7611C12.939 32.1164 12.939 46.6689 12.939 46.6689H0V0.714233H12.939C12.939 0.714233 12.939 14.9477 12.939 16.7358C16.2188 14.5029 19.681 13.2649 23.6423 13.2649C27.5987 13.2649 31.0632 14.5029 34.3401 16.7358C34.3401 14.9479 34.3401 0.714233 34.3401 0.714233H47.2813V46.6689H34.3401C34.3401 46.6689 34.3401 32.1164 34.3401 31.7611C32.0103 28.1572 28.1183 25.9226 23.6423 25.9226Z" fill="white"/>
<path d="M67.5355 9.69574H59.8033V3.01233H56.1727V20.127H59.8033V13.0362H67.5355V20.127H71.1592V3.01233H67.5355V9.69574Z" fill="white"/>
<path d="M146.343 3.9906C145.586 4.79232 145.553 5.97054 145.537 6.65504V20.127H149.159V14.666H156.856V20.1273H160.495V3.01233H149.181C148.108 3.02415 147.105 3.18406 146.343 3.9906ZM150.085 6.35524H156.856V11.3209H149.158V7.33206C149.169 7.13622 149.134 6.78335 149.295 6.57086C149.465 6.35017 149.742 6.36706 150.085 6.35524Z" fill="white"/>
<path d="M120.677 3.01233H109.34V20.127H112.972V6.355H119.775C120.117 6.36682 120.394 6.34993 120.559 6.57086C120.722 6.78311 120.688 7.13622 120.702 7.33206V20.127H124.331V6.65504C124.309 5.9703 124.279 4.79232 123.523 3.9906C122.759 3.18406 121.758 3.02415 120.677 3.01233Z" fill="white"/>
<path d="M102.503 15.8008C102.491 16.0039 102.524 16.3473 102.364 16.562C102.192 16.7882 101.912 16.7699 101.579 16.7771H94.7753V3.01233H91.1465V20.127H102.478C103.557 20.1142 104.558 19.949 105.32 19.1432C106.085 18.3412 106.11 17.1698 106.129 16.4821V3.01233H102.503V15.8008H102.503Z" fill="white"/>
<path d="M142.524 6.65504C142.508 5.9703 142.475 4.79232 141.719 3.9906C140.962 3.18406 139.955 3.02415 138.879 3.01233H131.169H127.547V20.127H138.879C139.955 20.1142 140.962 19.949 141.719 19.1432C142.475 18.3412 142.508 17.1698 142.524 16.4821V6.65504ZM138.909 15.8008C138.893 16.0039 138.928 16.3473 138.771 16.562C138.6 16.7882 138.318 16.7699 137.988 16.7771H131.169V6.35524H137.988C138.318 6.36706 138.6 6.35017 138.771 6.57111C138.928 6.78335 138.893 7.13646 138.909 7.3323V15.8008Z" fill="white"/>
<path d="M81.1578 10.4982L76.7529 3.01233H72.4444L79.2183 13.7991V20.127H83.0921V13.7991L89.8618 3.01233H85.5547L81.1578 10.4982Z" fill="white"/>
<path d="M164.13 3.01233V6.35524V16.781V20.127H168V16.781V6.35524V3.01233H164.13Z" fill="white"/>
<path d="M128.985 40.928V27.2571H125.214V44.371H137.544V40.928H128.985Z" fill="white"/>
<path d="M95.3907 30.8038H105.242V27.2571H91.62V44.371H105.242V40.825H95.3907V37.4221H103.945V34.206H95.3907V34.1819V30.8038Z" fill="white"/>
<path d="M112.185 30.8038H122.041V27.2571H108.417V44.371H122.041V40.825H112.185V37.4221H120.743V34.206H112.185V34.1819V30.8038Z" fill="white"/>
<path d="M67.8204 34.0268H60.7021C60.0873 34.0268 59.7842 33.7048 59.7842 33.0577V31.5664C59.7842 31.0587 60.0873 30.8038 60.7021 30.8038H70.6687V27.2571H59.804C57.3827 27.2571 56.1727 28.4674 56.1727 30.8872V34.0702C56.1727 36.4059 57.3288 37.5748 59.6426 37.5748H66.7238C67.3365 37.5748 67.6429 37.8994 67.6429 38.5443V40.0602C67.6429 40.5694 67.3365 40.825 66.7238 40.825H56.318V44.3713H67.6426C70.0747 44.3713 71.2929 43.154 71.2929 40.7218V37.5335C71.2931 35.1961 70.136 34.0268 67.8204 34.0268Z" fill="white"/>
<path d="M73.6587 27.2571V30.8038H79.2627V44.371H83.0338V30.8038H88.638V27.2571H73.6587Z" fill="white"/>
</g>
<defs>
<clipPath id="clip0_1239_177">
<rect width="168" height="45.9546" fill="white" transform="translate(0 0.714233)"/>
</clipPath>
</defs>
</svg>
