<svg id="Logo" xmlns="http://www.w3.org/2000/svg" width="72" height="72" viewBox="0 0 72 72">
  <defs>
    <style>
      .cls-1 {
        fill: #f93f1c;
      }

      .cls-2 {
        fill: #fff;
        fill-rule: evenodd;
      }
    </style>
  </defs>
  <circle id="Base" class="cls-1" cx="36" cy="36" r="36"/>
  <path id="Quill_Icon" data-name="Quill Icon" class="cls-2" d="M596.25,85.187s5.975-3.585,9.339-2.169c0.7-1.062,1.384-2.207,2.057-3.376A22.8,22.8,0,0,0,600,79.563s5.573-3.344,8.984-2.3c0.684-1.234,1.35-2.45,1.991-3.583a26.26,26.26,0,0,0-5.35.255,19.889,19.889,0,0,1,6.638-2.449A13.407,13.407,0,0,1,615,68c-16.436,0-26.25,18.75-30,30h1.875l5.625-9.375s1.875,1.875,7.5,0a9.544,9.544,0,0,0,3.972-3.338A22.634,22.634,0,0,0,596.25,85.187Z" transform="translate(-564 -47)"/>
</svg>
