<svg width="30" height="28" viewBox="0 0 30 28" fill="none" xmlns="http://www.w3.org/2000/svg">
<rect x="1.43103" y="0.5" width="27.9655" height="27" rx="4.5" stroke="white" stroke-opacity="0.5"/>
<g clip-path="url(#clip0_1018_103)">
<path d="M21.7931 5.79321H9.99926C9.38661 5.79335 8.79909 6.05115 8.36594 6.50992C7.93278 6.96868 7.68947 7.59083 7.68951 8.23952V20.7266C7.68956 21.3752 7.93291 21.9973 8.36605 22.4559C8.7992 22.9146 9.38666 23.1724 9.99926 23.1725H15.3666V16.8291H13.338V14.3546H15.3666V12.5322C15.3666 11.4992 15.6364 10.6972 16.1759 10.1262C16.7155 9.55525 17.4473 9.26919 18.3713 9.26803C19.2967 9.26803 19.8958 9.30609 20.1696 9.3777V11.5805H18.9371C18.4918 11.5805 18.1878 11.6805 18.0251 11.8803C17.8454 12.1391 17.7592 12.4574 17.782 12.7776V14.3548H20.0937L19.7855 16.8291H17.782V23.1725H21.7931C22.4058 23.1725 22.9934 22.9148 23.4267 22.4561C23.8599 21.9973 24.1033 21.3751 24.1033 20.7264V8.23952C24.1033 7.91828 24.0436 7.60017 23.9275 7.30337C23.8114 7.00658 23.6412 6.73689 23.4267 6.50973C23.2122 6.28257 22.9575 6.10237 22.6772 5.97943C22.3969 5.85649 22.0965 5.79321 21.7931 5.79321Z" fill="white" fill-opacity="0.5"/>
</g>
<defs>
<clipPath id="clip0_1018_103">
<rect width="16.4138" height="17.3793" fill="white" transform="translate(7.68951 5.79321)"/>
</clipPath>
</defs>
</svg>
