<svg width="192" height="51" viewBox="0 0 192 51" fill="none" xmlns="http://www.w3.org/2000/svg">
<rect x="12.5" y="0.5" width="167" height="50" rx="3.5" stroke="white"/>
<path d="M55.4819 20.26H48.2619V24.84H54.3819V26.68H48.2619V33.16H46.1419V18.4H55.4819V20.26ZM60.533 33.26C59.6663 33.26 58.8863 33.0533 58.193 32.64C57.513 32.2267 56.9797 31.66 56.593 30.94C56.2063 30.2067 56.013 29.38 56.013 28.46C56.013 27.54 56.2063 26.72 56.593 26C56.9797 25.2667 57.513 24.6933 58.193 24.28C58.8863 23.8667 59.6663 23.66 60.533 23.66C61.053 23.66 61.5663 23.7867 62.073 24.04C62.593 24.2933 63.033 24.6667 63.393 25.16L63.273 25.26V23.64H65.393V33.18H63.273V31.64L63.393 31.74C63.1397 32.0867 62.853 32.3733 62.533 32.6C62.2263 32.8267 61.8997 32.9933 61.553 33.1C61.2197 33.2067 60.8797 33.26 60.533 33.26ZM60.673 31.46C61.1397 31.46 61.573 31.3333 61.973 31.08C62.373 30.8133 62.693 30.4533 62.933 30C63.173 29.5333 63.293 29.02 63.293 28.46C63.293 27.9 63.173 27.3933 62.933 26.94C62.693 26.4733 62.373 26.1133 61.973 25.86C61.573 25.5933 61.1397 25.46 60.673 25.46C60.1663 25.46 59.7197 25.5867 59.333 25.84C58.9597 26.08 58.6663 26.4267 58.453 26.88C58.2397 27.3333 58.133 27.86 58.133 28.46C58.133 29.06 58.2397 29.5867 58.453 30.04C58.6663 30.4933 58.9597 30.8467 59.333 31.1C59.7197 31.34 60.1663 31.46 60.673 31.46ZM80.095 27.76C80.095 27.08 79.9284 26.5333 79.595 26.12C79.2617 25.7067 78.8217 25.5 78.275 25.5C77.875 25.5 77.5217 25.5933 77.215 25.78C76.9084 25.9667 76.6684 26.2267 76.495 26.56C76.3217 26.8933 76.235 27.26 76.235 27.66V33.18H74.095V27.76C74.095 27.08 73.9284 26.5333 73.595 26.12C73.275 25.7067 72.8484 25.5 72.315 25.5C71.915 25.5 71.555 25.6067 71.235 25.82C70.9284 26.02 70.6817 26.3067 70.495 26.68C70.3217 27.04 70.235 27.44 70.235 27.88V33.18H68.115V23.64H70.235V25.34L70.015 25.28C70.295 24.8 70.655 24.4133 71.095 24.12C71.5484 23.8133 72.0217 23.66 72.515 23.66C73.075 23.66 73.615 23.82 74.135 24.14C74.655 24.46 75.055 24.8733 75.335 25.38C75.6684 24.8733 76.1217 24.46 76.695 24.14C77.2684 23.82 77.8417 23.66 78.415 23.66C79.1617 23.66 79.8217 23.8333 80.395 24.18C80.9817 24.5267 81.435 25.0067 81.755 25.62C82.075 26.22 82.235 26.9067 82.235 27.68V33.18H80.095V27.76ZM87.2277 23.62V33.16H85.1077V23.62H87.2277ZM86.1677 18.86C86.5143 18.86 86.801 18.9733 87.0277 19.2C87.2543 19.4267 87.3677 19.7133 87.3677 20.06C87.3677 20.4067 87.2543 20.6933 87.0277 20.92C86.801 21.1467 86.5143 21.26 86.1677 21.26C85.821 21.26 85.5343 21.1467 85.3077 20.92C85.081 20.6933 84.9677 20.4067 84.9677 20.06C84.9677 19.7133 85.081 19.4267 85.3077 19.2C85.5343 18.9733 85.821 18.86 86.1677 18.86ZM92.1421 18.88V33.16H90.0221V18.88H92.1421ZM95.9733 37.32L98.0533 32.38L94.2133 23.64H96.5533L99.1733 29.96L101.693 23.64H103.993L100.433 32.22L98.2933 37.32H95.9733ZM112.802 28.96C113.229 29.7867 113.729 30.4133 114.302 30.84C114.889 31.2667 115.509 31.48 116.162 31.48C117.096 31.4933 117.822 31.2933 118.342 30.88C118.862 30.4533 119.122 29.88 119.122 29.16C119.122 28.6933 118.982 28.3 118.702 27.98C118.436 27.66 118.096 27.4067 117.682 27.22C117.282 27.02 116.722 26.7867 116.002 26.52C115.082 26.1867 114.336 25.8667 113.762 25.56C113.189 25.2533 112.702 24.82 112.302 24.26C111.902 23.7 111.702 22.98 111.702 22.1C111.702 21.3 111.902 20.6133 112.302 20.04C112.716 19.4533 113.276 19.0067 113.982 18.7C114.702 18.38 115.522 18.2267 116.442 18.24C117.096 18.2533 117.716 18.3867 118.302 18.64C118.889 18.88 119.416 19.2533 119.882 19.76C120.349 20.2533 120.716 20.8733 120.982 21.62L119.082 22.3C118.829 21.5667 118.469 21.02 118.002 20.66C117.536 20.2867 117.009 20.0933 116.422 20.08C115.902 20.08 115.442 20.1667 115.042 20.34C114.656 20.5 114.356 20.7333 114.142 21.04C113.929 21.3333 113.822 21.6867 113.822 22.1C113.822 22.5667 113.956 22.96 114.222 23.28C114.502 23.6 114.849 23.8667 115.262 24.08C115.689 24.28 116.256 24.5133 116.962 24.78C117.882 25.14 118.622 25.4733 119.182 25.78C119.742 26.0867 120.222 26.52 120.622 27.08C121.022 27.6267 121.222 28.3267 121.222 29.18C121.222 30.0067 121.016 30.7333 120.602 31.36C120.189 31.9867 119.596 32.4733 118.822 32.82C118.062 33.1667 117.169 33.3333 116.142 33.32C115.076 33.3067 114.116 33.0133 113.262 32.44C112.409 31.8533 111.669 31.02 111.042 29.94L112.802 28.96ZM126.29 23.62V33.16H124.17V23.62H126.29ZM125.23 18.86C125.577 18.86 125.864 18.9733 126.09 19.2C126.317 19.4267 126.43 19.7133 126.43 20.06C126.43 20.4067 126.317 20.6933 126.09 20.92C125.864 21.1467 125.577 21.26 125.23 21.26C124.884 21.26 124.597 21.1467 124.37 20.92C124.144 20.6933 124.03 20.4067 124.03 20.06C124.03 19.7133 124.144 19.4267 124.37 19.2C124.597 18.9733 124.884 18.86 125.23 18.86ZM130.445 20.28H132.565V33.18H130.445V20.28ZM128.645 23.62H134.825V25.46H128.645V23.62ZM140.925 33.22C140.032 33.22 139.239 33.02 138.545 32.62C137.852 32.2067 137.305 31.64 136.905 30.92C136.519 30.1867 136.325 29.36 136.325 28.44C136.325 27.5067 136.519 26.68 136.905 25.96C137.305 25.2267 137.852 24.66 138.545 24.26C139.239 23.8467 140.032 23.64 140.925 23.64C141.805 23.64 142.532 23.8267 143.105 24.2C143.692 24.56 144.112 24.9333 144.365 25.32C144.632 25.6933 144.805 25.9933 144.885 26.22C145.112 26.74 145.245 27.2667 145.285 27.8C145.325 28.3333 145.325 28.7867 145.285 29.16V29.26H138.405C138.485 29.6733 138.645 30.0467 138.885 30.38C139.139 30.7133 139.439 30.9733 139.785 31.16C140.145 31.3333 140.525 31.42 140.925 31.42C141.405 31.42 141.812 31.3467 142.145 31.2C142.479 31.0533 142.732 30.8933 142.905 30.72C143.079 30.5333 143.212 30.3667 143.305 30.22L145.005 30.98C144.739 31.5933 144.252 32.12 143.545 32.56C142.852 33 141.979 33.22 140.925 33.22ZM143.285 27.58C143.219 27.1667 143.092 26.8 142.905 26.48C142.719 26.16 142.459 25.9067 142.125 25.72C141.792 25.5333 141.392 25.44 140.925 25.44C140.299 25.44 139.752 25.64 139.285 26.04C138.819 26.44 138.525 26.9533 138.405 27.58H143.285Z" fill="white"/>
</svg>
