<svg width="28" height="28" viewBox="0 0 28 28" fill="none" xmlns="http://www.w3.org/2000/svg">
<rect x="0.5" y="0.5" width="27" height="27" rx="4.5" stroke="white" stroke-opacity="0.5"/>
<g clip-path="url(#clip0_1018_94)">
<path d="M14 9.96289C13.1622 9.96292 12.3433 10.226 11.6468 10.7188C10.9502 11.2116 10.4074 11.9121 10.0868 12.7316C9.76622 13.5511 9.68236 14.4529 9.84581 15.3229C10.0093 16.1928 10.4127 16.992 11.0051 17.6192C11.5975 18.2464 12.3522 18.6735 13.1739 18.8465C13.9955 19.0196 14.8472 18.9307 15.6211 18.5913C16.3951 18.2518 17.0566 17.677 17.5221 16.9395C17.9875 16.2019 18.2359 15.3348 18.2359 14.4478C18.2337 13.259 17.7867 12.1196 16.9928 11.279C16.1989 10.4384 15.1227 9.96514 14 9.96289ZM14 17.3211C13.4633 17.3211 12.9387 17.1526 12.4925 16.8368C12.0463 16.5211 11.6985 16.0724 11.4931 15.5474C11.2878 15.0224 11.2341 14.4447 11.3388 13.8874C11.4435 13.3301 11.7019 12.8182 12.0814 12.4163C12.4609 12.0145 12.9444 11.7409 13.4707 11.63C13.9971 11.5192 14.5427 11.5761 15.0385 11.7935C15.5343 12.0109 15.9581 12.3792 16.2563 12.8516C16.5545 13.3241 16.7136 13.8796 16.7137 14.4478C16.7105 15.2088 16.4236 15.9377 15.9153 16.4758C15.4071 17.0139 14.7187 17.3177 14 17.3211Z" fill="white" fill-opacity="0.5"/>
<path d="M18.4014 10.8739C18.9314 10.8739 19.3611 10.4189 19.3611 9.85772C19.3611 9.29651 18.9314 8.84155 18.4014 8.84155C17.8713 8.84155 17.4417 9.29651 17.4417 9.85772C17.4417 10.4189 17.8713 10.8739 18.4014 10.8739Z" fill="white" fill-opacity="0.5"/>
<path d="M20.8831 7.22979C20.0229 6.28383 18.7984 5.79321 17.4085 5.79321H10.5915C7.71252 5.79321 5.79309 7.82555 5.79309 10.8739V18.0569C5.79309 19.5635 6.25645 20.86 7.18301 21.8062C8.07658 22.7172 9.26756 23.1727 10.6247 23.1727H17.3755C18.7984 23.1727 19.9897 22.6821 20.8501 21.8062C21.7437 20.8951 22.2069 19.599 22.2069 18.092V10.8739C22.2069 9.4022 21.7435 8.14081 20.8831 7.22979ZM20.7508 18.0919C20.7508 19.1781 20.3868 20.054 19.7911 20.6497C19.1954 21.2455 18.3682 21.5608 17.3753 21.5608H10.6245C9.63178 21.5608 8.80437 21.2453 8.20871 20.6497C7.61305 20.019 7.31514 19.1431 7.31514 18.0569V10.8739C7.31514 9.82278 7.61305 8.94669 8.20871 8.31599C8.77121 7.7204 9.63162 7.40497 10.6245 7.40497H17.4416C18.4343 7.40497 19.2618 7.7204 19.8574 8.3511C20.4512 9.03868 20.7713 9.94245 20.751 10.8739L20.7508 18.0919Z" fill="white" fill-opacity="0.5"/>
</g>
<defs>
<clipPath id="clip0_1018_94">
<rect width="16.4138" height="17.3793" fill="white" transform="translate(5.79309 5.79321)"/>
</clipPath>
</defs>
</svg>
