<svg width="152" height="40" viewBox="0 0 152 40" fill="none" xmlns="http://www.w3.org/2000/svg">
<path d="M21.2718 21.9419C17.2422 21.9419 13.7405 23.887 11.6417 27.0239C11.6417 27.3332 11.6417 40 11.6417 40H0V0H11.6417C11.6417 0 11.6417 12.3891 11.6417 13.9456C14.5926 12.002 17.7077 10.9244 21.2718 10.9244C24.8315 10.9244 27.9487 12.002 30.8971 13.9456C30.8971 12.3893 30.8971 0 30.8971 0H42.5407V40H30.8971C30.8971 40 30.8971 27.3332 30.8971 27.0239C28.8008 23.887 25.2991 21.9419 21.2718 21.9419Z" fill="white"/>
<path d="M60.7641 7.81776H53.8072V2.00037H50.5405V16.8974H53.8072V10.7254H60.7641V16.8974H64.0245V2.00037H60.7641V7.81776Z" fill="white"/>
<path d="M131.67 2.852C130.988 3.54983 130.959 4.57538 130.944 5.17119V16.8975H134.203V12.1441H141.129V16.8977H144.403V2.00049H134.223C133.258 2.01078 132.355 2.14996 131.67 2.852ZM135.036 4.91024H141.129V9.23245H134.203V5.76049C134.213 5.59002 134.181 5.28288 134.326 5.09792C134.479 4.90583 134.728 4.92052 135.036 4.91024Z" fill="white"/>
<path d="M108.577 2.00049H98.377V16.8975H101.644V4.91003H107.766C108.074 4.92031 108.322 4.90562 108.471 5.09792C108.618 5.28267 108.587 5.59002 108.6 5.76049V16.8975H111.865V5.17119C111.845 4.57517 111.818 3.54983 111.137 2.852C110.451 2.14996 109.549 2.01078 108.577 2.00049Z" fill="white"/>
<path d="M92.2255 13.1318C92.2144 13.3086 92.2442 13.6076 92.1008 13.7944C91.9459 13.9913 91.694 13.9754 91.3942 13.9817H85.2728V2.00049H82.0078V16.8975H92.2031C93.1742 16.8864 94.0747 16.7426 94.7599 16.0412C95.4481 15.3431 95.4714 14.3235 95.488 13.7249V2.00049H92.2253V13.1318H92.2255Z" fill="white"/>
<path d="M128.234 5.17119C128.22 4.57517 128.19 3.54983 127.51 2.852C126.829 2.14996 125.923 2.01078 124.954 2.00049H118.018H114.759V16.8975H124.954C125.923 16.8864 126.829 16.7426 127.51 16.0412C128.19 15.3431 128.22 14.3235 128.234 13.7249V5.17119ZM124.982 13.1318C124.967 13.3086 124.999 13.6076 124.858 13.7944C124.704 13.9913 124.45 13.9754 124.153 13.9817H118.018V4.91024H124.153C124.45 4.92052 124.704 4.90583 124.858 5.09813C124.999 5.28288 124.967 5.59023 124.982 5.7607V13.1318Z" fill="white"/>
<path d="M73.0204 8.51635L69.0572 2.00049H65.1807L71.2754 11.3896V16.8975H74.7608V11.3896L80.8517 2.00049H76.9765L73.0204 8.51635Z" fill="white"/>
<path d="M147.674 2.00049V4.91024V13.985V16.8975H151.156V13.985V4.91024V2.00049H147.674Z" fill="white"/>
<path d="M116.053 35.0032V23.1036H112.659V38H123.753V35.0032H116.053Z" fill="white"/>
<path d="M85.8262 26.1908H94.6898V23.1036H82.4336V38H94.6898V34.9135H85.8262V31.9515H93.5232V29.1522H85.8262V29.1312V26.1908Z" fill="white"/>
<path d="M100.936 26.1908H109.804V23.1036H97.5464V38H109.804V34.9135H100.936V31.9515H108.637V29.1522H100.936V29.1312V26.1908Z" fill="white"/>
<path d="M61.0204 28.9962H54.6159C54.0627 28.9962 53.79 28.7159 53.79 28.1527V26.8546C53.79 26.4127 54.0627 26.1908 54.6159 26.1908H63.5832V23.1036H53.8078C51.6293 23.1036 50.5405 24.1571 50.5405 26.2634V29.034C50.5405 31.067 51.5808 32.0844 53.6625 32.0844H60.0337C60.585 32.0844 60.8607 32.367 60.8607 32.9283V34.2478C60.8607 34.691 60.585 34.9135 60.0337 34.9135H50.6713V38.0002H60.8605C63.0487 38.0002 64.1447 36.9407 64.1447 34.8237V32.0485C64.145 30.014 63.1039 28.9962 61.0204 28.9962Z" fill="white"/>
<path d="M66.2734 23.1036V26.1908H71.3155V38H74.7086V26.1908H79.7509V23.1036H66.2734Z" fill="white"/>
</svg>
