<svg width="212" height="56" viewBox="0 0 212 56" fill="none" xmlns="http://www.w3.org/2000/svg">
<path d="M29.7805 30.7187C24.1391 30.7187 19.2367 33.4418 16.2984 37.8335C16.2984 38.2664 16.2984 56 16.2984 56H0V0H16.2984C16.2984 0 16.2984 17.3447 16.2984 19.5238C20.4297 16.8028 24.7908 15.2941 29.7805 15.2941C34.7641 15.2941 39.1282 16.8028 43.2559 19.5238C43.2559 17.345 43.2559 0 43.2559 0H59.5569V56H43.2559C43.2559 56 43.2559 38.2664 43.2559 37.8335C40.3212 33.4418 35.4187 30.7187 29.7805 30.7187Z" fill="white"/>
<path d="M85.0698 10.9446H75.3301V2.80029H70.7568V23.6561H75.3301V15.0154H85.0698V23.6561H89.6343V2.80029H85.0698V10.9446Z" fill="white"/>
<path d="M184.338 3.99241C183.384 4.96938 183.343 6.40515 183.322 7.23927V23.6561H187.885V17.0013H197.581V23.6564H202.164V2.80029H187.913C186.561 2.81469 185.298 3.00956 184.338 3.99241ZM189.051 6.87394H197.581V12.925H187.884V8.06429C187.898 7.82563 187.854 7.39564 188.056 7.1367C188.271 6.86777 188.619 6.88834 189.051 6.87394Z" fill="white"/>
<path d="M152.009 2.80029H137.728V23.6561H142.303V6.87365H150.873C151.304 6.88805 151.652 6.86747 151.86 7.1367C152.066 7.39534 152.022 7.82563 152.04 8.06429V23.6561H156.611V7.23927C156.583 6.40485 156.545 4.96938 155.593 3.99241C154.632 3.00956 153.37 2.81469 152.009 2.80029Z" fill="white"/>
<path d="M129.116 18.3842C129.1 18.6317 129.142 19.0502 128.941 19.3118C128.724 19.5875 128.372 19.5651 127.952 19.574H119.382V2.80029H114.811V23.6561H129.084C130.444 23.6406 131.704 23.4392 132.664 22.4573C133.627 21.48 133.66 20.0525 133.683 19.2145V2.80029H129.115V18.3842H129.116Z" fill="white"/>
<path d="M179.528 7.23927C179.508 6.40485 179.466 4.96938 178.513 3.99241C177.56 3.00956 176.291 2.81469 174.936 2.80029H165.225H160.662V23.6561H174.936C176.292 23.6406 177.56 23.4392 178.513 22.4573C179.466 21.48 179.508 20.0525 179.528 19.2145V7.23927ZM174.974 18.3842C174.954 18.6317 174.998 19.0502 174.8 19.3118C174.585 19.5875 174.229 19.5651 173.814 19.574H165.225V6.87394H173.814C174.229 6.88834 174.585 6.86777 174.8 7.13699C174.998 7.39564 174.954 7.82593 174.974 8.06458V18.3842Z" fill="white"/>
<path d="M102.229 11.9225L96.6803 2.80029H91.2532L99.7858 15.945V23.6561H104.665V15.945L113.193 2.80029H107.767L102.229 11.9225Z" fill="white"/>
<path d="M206.743 2.80029V6.87394V19.5787V23.6561H211.618V19.5787V6.87394V2.80029H206.743Z" fill="white"/>
<path d="M162.474 49.0041V32.3447H157.723V53.1997H173.255V49.0041H162.474Z" fill="white"/>
<path d="M120.157 36.6667H132.566V32.3447H115.407V53.1997H132.566V48.8786H120.157V44.7317H130.933V40.8127H120.157V40.7833V36.6667Z" fill="white"/>
<path d="M141.312 36.6667H153.727V32.3447H136.566V53.1997H153.727V48.8786H141.312V44.7317H152.092V40.8127H141.312V40.7833V36.6667Z" fill="white"/>
<path d="M85.4287 40.5943H76.4623C75.6878 40.5943 75.306 40.2019 75.306 39.4134V37.5961C75.306 36.9774 75.6878 36.6667 76.4623 36.6667H89.0165V32.3447H75.331C72.2811 32.3447 70.7568 33.8196 70.7568 36.7684V40.6472C70.7568 43.4935 72.2132 44.9178 75.1276 44.9178H84.0473C84.8191 44.9178 85.2051 45.3134 85.2051 46.0993V47.9466C85.2051 48.567 84.8191 48.8786 84.0473 48.8786H70.9399V53.2H85.2048C88.2682 53.2 89.8027 51.7166 89.8027 48.7528V44.8675C89.803 42.0192 88.3455 40.5943 85.4287 40.5943Z" fill="white"/>
<path d="M92.7828 32.3447V36.6667H99.8418V53.1997H104.592V36.6667H111.651V32.3447H92.7828Z" fill="white"/>
</svg>
