<svg width="208" height="60" viewBox="0 0 208 60" fill="none" xmlns="http://www.w3.org/2000/svg">
<path d="M29.002 32.9129C23.5081 32.9129 18.7338 35.8305 15.8723 40.5359C15.8723 40.9997 15.8723 60 15.8723 60H0V0H15.8723C15.8723 0 15.8723 18.5837 15.8723 20.9184C19.8956 18.003 24.1427 16.3865 29.002 16.3865C33.8553 16.3865 38.1053 18.003 42.1251 20.9184C42.1251 18.584 42.1251 0 42.1251 0H58V60H42.1251C42.1251 60 42.1251 40.9997 42.1251 40.5359C39.2671 35.8305 34.4928 32.9129 29.002 32.9129Z" fill="white"/>
<path d="M83.405 11.7078H73.8559V2.99561H69.3721V25.3055H73.8559V16.0623H83.405V25.3055H87.8802V2.99561H83.405V11.7078Z" fill="white"/>
<path d="M180.731 4.27083C179.796 5.31592 179.755 6.85179 179.735 7.74407V25.3055H184.208V18.1867H193.715V25.3058H198.209V2.99561H184.236C182.91 3.01101 181.672 3.21946 180.731 4.27083ZM185.352 7.35327H193.715V13.8262H184.208V8.62661C184.222 8.37131 184.178 7.91133 184.377 7.63434C184.587 7.34666 184.928 7.36867 185.352 7.35327Z" fill="white"/>
<path d="M149.034 2.99561H135.033V25.3055H139.518V7.35295H147.92C148.343 7.36836 148.684 7.34635 148.889 7.63434C149.09 7.91102 149.047 8.37131 149.065 8.62661V25.3055H153.547V7.74407C153.519 6.85147 153.482 5.31592 152.548 4.27083C151.606 3.21946 150.368 3.01101 149.034 2.99561Z" fill="white"/>
<path d="M126.589 19.666C126.574 19.9307 126.615 20.3785 126.418 20.6583C126.205 20.9532 125.859 20.9293 125.448 20.9387H117.046V2.99561H112.564V25.3055H126.558C127.891 25.2888 129.127 25.0735 130.068 24.023C131.012 22.9776 131.044 21.4506 131.067 20.5542V2.99561H126.589V19.666H126.589Z" fill="white"/>
<path d="M176.015 7.74407C175.995 6.85147 175.954 5.31592 175.02 4.27083C174.085 3.21946 172.842 3.01101 171.513 2.99561H161.992H157.518V25.3055H171.513C172.842 25.2888 174.085 25.0735 175.02 24.023C175.954 22.9776 175.995 21.4506 176.015 20.5542V7.74407ZM171.55 19.666C171.531 19.9307 171.573 20.3785 171.38 20.6583C171.169 20.9532 170.82 20.9293 170.413 20.9387H161.992V7.35327H170.413C170.82 7.36867 171.169 7.34666 171.38 7.63466C171.573 7.91133 171.531 8.37162 171.55 8.62692V19.666Z" fill="white"/>
<path d="M100.228 12.7538L94.7885 2.99561H89.4675L97.8332 17.0568V25.3055H102.617V17.0568L110.978 2.99561H105.659L100.228 12.7538Z" fill="white"/>
<path d="M202.698 2.99561V7.35327V20.9438V25.3055H207.477V20.9438V7.35327V2.99561H202.698Z" fill="white"/>
<path d="M159.295 52.4209V34.6001H154.637V56.909H169.865V52.4209H159.295Z" fill="white"/>
<path d="M117.806 39.2234H129.972V34.6001H113.149V56.909H129.972V52.2867H117.806V47.8507H128.371V43.6584H117.806V43.627V39.2234Z" fill="white"/>
<path d="M138.547 39.2234H150.719V34.6001H133.893V56.909H150.719V52.2867H138.547V47.8507H149.116V43.6584H138.547V43.627V39.2234Z" fill="white"/>
<path d="M83.7569 43.4248H74.9659C74.2066 43.4248 73.8323 43.0051 73.8323 42.1615V40.2176C73.8323 39.5558 74.2066 39.2234 74.9659 39.2234H87.2745V34.6001H73.8568C70.8665 34.6001 69.3721 36.1778 69.3721 39.3322V43.4814C69.3721 46.5261 70.7999 48.0497 73.6573 48.0497H82.4025C83.1592 48.0497 83.5376 48.4729 83.5376 49.3136V51.2897C83.5376 51.9534 83.1592 52.2867 82.4025 52.2867H69.5516V56.9094H83.5373C86.5408 56.9094 88.0453 55.3226 88.0453 52.1521V47.996C88.0456 44.9491 86.6166 43.4248 83.7569 43.4248Z" fill="white"/>
<path d="M90.967 34.6001V39.2234H97.8879V56.909H102.545V39.2234H109.466V34.6001H90.967Z" fill="white"/>
</svg>
