<svg width="29" height="28" viewBox="0 0 29 28" fill="none" xmlns="http://www.w3.org/2000/svg">
<rect x="1.32764" y="0.5" width="27" height="27" rx="4.5" stroke="white" stroke-opacity="0.5"/>
<g clip-path="url(#clip0_1018_109)">
<path d="M23.637 10.2999C23.538 9.93159 23.3439 9.5958 23.0742 9.32613C22.8046 9.05647 22.4688 8.8624 22.1005 8.76337C20.7451 8.40015 15.3104 8.40015 15.3104 8.40015C15.3104 8.40015 9.8757 8.40015 8.52029 8.76337C8.15201 8.86242 7.81622 9.05649 7.54656 9.32615C7.2769 9.59581 7.08282 9.9316 6.98378 10.2999C6.62073 11.6551 6.62073 14.4829 6.62073 14.4829C6.62073 14.4829 6.62073 17.3107 6.98378 18.6659C7.08281 19.0342 7.27688 19.37 7.54654 19.6397C7.8162 19.9094 8.152 20.1035 8.52029 20.2026C9.8757 20.5657 15.3104 20.5657 15.3104 20.5657C15.3104 20.5657 20.7451 20.5657 22.1005 20.2026C22.4688 20.1036 22.8046 19.9095 23.0742 19.6398C23.3439 19.3701 23.538 19.0342 23.637 18.6659C24 17.3109 24 14.4829 24 14.4829C24 14.4829 24 11.6551 23.637 10.2999ZM13.5725 17.0898V11.876L18.0876 14.4829L13.5725 17.0898Z" fill="white" fill-opacity="0.5"/>
</g>
<defs>
<clipPath id="clip0_1018_109">
<rect width="17.3793" height="17.3793" fill="white" transform="translate(6.62073 5.79321)"/>
</clipPath>
</defs>
</svg>
