<svg id="Decoration" xmlns="http://www.w3.org/2000/svg" width="971.282" height="371.906" viewBox="0 0 971.282 371.906">
  <defs>
    <style>
      .cls-1, .cls-2, .cls-3, .cls-4 {
        fill: #fff;
        fill-rule: evenodd;
      }

      .cls-1 {
        opacity: 0.05;
      }

      .cls-2 {
        opacity: 0.02;
      }

      .cls-3 {
        opacity: 0.06;
      }

      .cls-4 {
        opacity: 0.04;
      }
    </style>
  </defs>
  <path class="cls-1" d="M177.38,570.3L119.37,591.46a7.16,7.16,0,0,0-4.241,9.162l16.346,44.8a7.159,7.159,0,0,0,9.145,4.278l58.01-21.164a7.16,7.16,0,0,0,4.241-9.162l-16.346-44.8A7.16,7.16,0,0,0,177.38,570.3Zm-26.114,43.031-13.491,21.651L124.963,599.86Zm-23.022-14.951,46.8-17.075L158.081,607.48Zm24.047,15.476,9.978,5.109,4.344-10.335L188.2,622.193,144.514,638.13Zm14.769-6.287,11.451-27.241,12.812,35.118Z" transform="translate(-114.688 -473.438)"/>
  <path id="Shape_1_copy" data-name="Shape 1 copy" class="cls-1" d="M350.6,537.391l-59.23-46.471a8.73,8.73,0,0,0-12.218,1.5l-35.892,45.746a8.73,8.73,0,0,0,1.451,12.224l59.23,46.471a8.73,8.73,0,0,0,12.218-1.5l35.891-45.746A8.731,8.731,0,0,0,350.6,537.391Zm-61.365.629-31.1-.048,28.133-35.857Zm0.679-33.461L337.7,542.05l-38.025-.733Zm-0.563,34.859,1.126,13.621,13.5-2.147-0.17,31.081-44.6-34.994Zm16.01,11.254,35.579-5.66-28.132,35.856Z" transform="translate(-114.688 -473.438)"/>
  <path id="Shape_1_copy_2" data-name="Shape 1 copy 2" class="cls-2" d="M288.139,645.632L234.9,649.05a6.188,6.188,0,0,0-5.748,6.563l2.64,41.123a6.187,6.187,0,0,0,6.54,5.773l53.243-3.417a6.188,6.188,0,0,0,5.748-6.563l-2.64-41.123A6.188,6.188,0,0,0,288.139,645.632Zm-32.127,29.313-16.456,14.663-2.069-32.232Zm-15.444-18,42.956-2.758-20.439,17.571Zm16.165,18.685,7.028,6.665,6.118-7.509,14.59,16.5-40.095,2.574Zm13.775-1.615,16.127-19.794,2.069,32.232Z" transform="translate(-114.688 -473.438)"/>
  <path id="Shape_1_copy_3" data-name="Shape 1 copy 3" class="cls-2" d="M466.554,665.456L383.48,698.018a10.128,10.128,0,0,0-5.9,13.052l24.594,61.963a10.233,10.233,0,0,0,13.275,5.537l83.074-32.562a10.128,10.128,0,0,0,5.9-13.052l-24.594-61.963A10.234,10.234,0,0,0,466.554,665.456Zm-36.615,61.607L411.01,758.077l-19.277-48.568Zm-33.515-19.8L463.447,681l-23.828,37.533Zm35,20.482,14.5,6.659,6.016-14.7,31.411,17.929-62.558,24.521Zm21.13-9.55,15.86-38.745,19.277,48.567Z" transform="translate(-114.688 -473.438)"/>
  <path id="Shape_1_copy_4" data-name="Shape 1 copy 4" class="cls-2" d="M847.992,569.49l-65.034-27.807a8.06,8.06,0,0,0-10.612,4.04l-20.72,48.323a8.04,8.04,0,0,0,4.4,10.457l65.034,27.807a8.059,8.059,0,0,0,10.611-4.04l20.72-48.323A8.041,8.041,0,0,0,847.992,569.49Zm-55.045,14.2-27.99,6.875L781.2,552.691Zm-7.85-29.658,52.468,22.434-34.393,7.81Zm8.308,30.866,4.458,11.761,11.6-4.895,7.707,27.446L768.2,598.272Zm17.248,6.363,30.576-12.9-16.241,37.876Z" transform="translate(-114.688 -473.438)"/>
  <path id="Shape_1_copy_5" data-name="Shape 1 copy 5" class="cls-3" d="M896.811,676.89l-53.665,6.523a6.179,6.179,0,0,0-5.5,6.718l4.637,39.769a6.108,6.108,0,0,0,6.888,5.213l53.664-6.523a6.18,6.18,0,0,0,5.5-6.718L903.7,682.1A6.106,6.106,0,0,0,896.811,676.89Zm-31.077,30.395L849.8,722.512l-3.635-31.171Zm-16.476-16.549,43.3-5.262-19.822,18.29Zm17.238,17.17,7.424,6.049,5.826-7.659,15.539,15.145-40.411,4.912Zm13.848-2.4L895.7,685.32l3.635,31.171Z" transform="translate(-114.688 -473.438)"/>
  <path id="Shape_1_copy_8" data-name="Shape 1 copy 8" class="cls-4" d="M1005.85,800.471l-45.729-28.838a6.178,6.178,0,0,0-8.5,1.736L930.093,807.13a6.108,6.108,0,0,0,2.048,8.392l45.725,28.838a6.179,6.179,0,0,0,8.5-1.736l21.52-33.762A6.1,6.1,0,0,0,1005.85,800.471Zm-43.3,3.936-21.972,1.741,16.87-26.463Zm-2.321-23.236,36.89,23.266L970.2,806.1Zm2.519,24.2,1.936,9.379,9.354-2.259,2.481,21.557-34.432-21.716ZM975,812.258l24.657-5.953-16.87,26.462Z" transform="translate(-114.688 -473.438)"/>
  <path id="Shape_1_copy_6" data-name="Shape 1 copy 6" class="cls-3" d="M1027.07,494.435l-79.89-20.674a9.431,9.431,0,0,0-11.557,6.477l-15.6,59.086a9.322,9.322,0,0,0,6.879,11.248l79.894,20.674a9.421,9.421,0,0,0,11.55-6.477l15.6-59.086A9.32,9.32,0,0,0,1027.07,494.435Zm-61.113,25.842L934.821,533.02l12.225-46.312Zm-14.178-32.7,64.451,16.68L977.865,519.18Zm14.915,34.01,7.175,12.736,12.55-7.631,13.631,30.186-60.16-15.568Zm21.014,4.321,33.082-20.115L1008.57,552.1Z" transform="translate(-114.688 -473.438)"/>
  <path id="Shape_1_copy_7" data-name="Shape 1 copy 7" class="cls-2" d="M996.077,693.771l67.023,16.9a7.929,7.929,0,0,0,9.68-5.371l12.95-48.806a7.684,7.684,0,0,0-5.79-9.271l-67.02-16.9a7.93,7.93,0,0,0-9.68,5.371L990.287,684.5A7.69,7.69,0,0,0,996.077,693.771Zm51.183-21.459,26.08-10.583-10.15,38.255Zm11.96,26.965-54.08-13.635,32.14-12.4Zm-12.58-28.043-6.04-10.5-10.51,6.325-11.49-24.89,50.48,12.727Zm-17.62-3.523-27.7,16.672,10.15-38.254Z" transform="translate(-114.688 -473.438)"/>
</svg>
