<svg width="1920" height="408" viewBox="0 0 1920 408" fill="none" xmlns="http://www.w3.org/2000/svg">
<path d="M0 2C93.91 11.36 354.24 40.43 388.49 209.89C409.71 266.85 460.83 371.05 575.65 398.91C692.23 428.19 839.53 361.71 814.21 315.35C806.17 312.5 804.32 325.84 819.29 334.2C846.66 361.5 937.31 349.8 967.85 351.92C981.64 351.4 940.11 378.54 911.64 347.4C911.77 345.91 916.44 346.1 917.94 345.99C935.35 344.24 987.79 349.68 983.68 337.7C966.66 332.82 914.02 338.54 905.37 335C880.38 317.91 999.73 334.22 988.63 322.96C975.84 315.71 891.87 326.2 902.4 311.8C905.23 310.28 931.88 311.24 943.94 310.99C962.65 310.99 983.64 310.99 986.77 310.99C1016.09 296 902.08 306.04 901.5 300.61C892.2 292.32 919.82 294.14 922.68 294.11C947.68 294.24 983.1 295.41 987.98 294.73C999.41 284.73 981.76 281.52 976.95 282.99C943.9 281.44 892.41 287.54 890.9 277.54C882.72 189.46 840.51 188.97 844 113.98C856.83 48.42 917.29 -2.42 994.31 34.56C1117.02 114.11 1001.85 230.57 1002.98 247.96C997.46 263.92 1001.62 278.91 979.29 272.95C977.44 265.42 976.09 257.21 967.92 250.47C967.63 237.25 1002.57 254.23 980 226.99C976.86 211.83 992.47 219.2 985.85 205.25C950.24 198.67 982.67 184.03 959.53 182.63C953.36 185.71 958.82 192.61 945.37 190.87C938.88 191.07 939.93 185.17 937 182.43C916.71 181.73 941.94 204.35 911.46 201.91C896.08 214.24 930.87 214.54 906.7 233.65C906.37 235.25 907.03 237.13 909 240.98C942.88 244.58 913.82 263.56 936.31 264.29C941.04 260.69 938.97 255.52 947 255.98C951.9 255.11 953.8 258.19 957.15 263.54C970.36 264.23 964.28 252.26 960.78 240.58C958.48 235.72 967.75 232.18 966.52 220C965.91 205.33 945.57 199.65 932.93 209.27C921.63 222.45 930.84 249.73 956.62 240.65C959.68 238.53 935.41 230.11 935.93 221.99C939.36 187.08 957.8 172.09 964.66 137.34C970.27 119.34 959.39 91.97 955.74 85.87C961.85 84.91 963.99 89.95 966.98 92.21C988.51 115.76 967.58 156.19 934.57 145.97C888.73 121.08 923.73 78.75 949.26 82.57C950.22 81.16 949.99 74.97 947.01 47.97C947.01 46.7 947.01 44.69 942.6 44.09C920.49 40.84 935.01 51.33 926.12 63.55C906.96 79.48 905.59 61 895.42 63.75C890.24 67.97 887.16 72.23 886.72 76.45C887.97 83.45 897.98 86.61 894.48 92.61C887.79 124.89 870.5 91.83 874.3 125.66C875.26 131.74 885.72 128.84 890.42 130.72C904.15 149.47 898.51 148.29 892.51 161.73C908.53 186.17 909.36 161.7 922.04 164.85C948.88 170.49 930.49 188.74 951.03 186.31C963.65 183.57 949.04 167.62 971.76 160.73C981.79 155.69 985.2 169.8 992.01 166.21C1019.81 147.93 964.32 137.44 1014.66 117.34C1020.62 90.19 997.65 109.33 992.89 92.52C990.74 86.27 986.5 85.06 989.26 78.04C1002.56 67.69 989.96 56.37 981.99 57.36C973.02 68.94 957.28 67.77 956.43 60.34C1006.28 -0.579998 1098.3 28.65 1151.74 108.39C1211.85 198.16 1207.78 224.59 1262.3 279.99C1446.26 481.76 1770.77 320.22 1920 244.97" stroke="#05141F" stroke-width="3"/>
</svg>
