<svg width="94" height="93" viewBox="0 0 94 93" fill="none" xmlns="http://www.w3.org/2000/svg">
<circle cx="47" cy="46.5" r="46.5" fill="#29587B" fill-opacity="0.9"/>
<path d="M33.2143 31.931C32.4286 31.931 31.7857 32.5206 31.7857 33.2413V59.4476C31.7857 60.1683 32.4286 60.7579 33.2143 60.7579H61.7857C62.5714 60.7579 63.2143 60.1683 63.2143 59.4476V33.2413C63.2143 32.5206 62.5714 31.931 61.7857 31.931H33.2143ZM27.5 33.2413C27.5 30.3504 30.0625 28 33.2143 28H61.7857C64.9375 28 67.5 30.3504 67.5 33.2413V59.4476C67.5 62.3385 64.9375 64.6889 61.7857 64.6889H33.2143C30.0625 64.6889 27.5 62.3385 27.5 59.4476V33.2413ZM45.3571 53.5512V48.3099H39.6429C38.4554 48.3099 37.5 47.4336 37.5 46.3444C37.5 45.2552 38.4554 44.379 39.6429 44.379H45.3571V39.1377C45.3571 38.0485 46.3125 37.1722 47.5 37.1722C48.6875 37.1722 49.6429 38.0485 49.6429 39.1377V44.379H55.3571C56.5446 44.379 57.5 45.2552 57.5 46.3444C57.5 47.4336 56.5446 48.3099 55.3571 48.3099H49.6429V53.5512C49.6429 54.6404 48.6875 55.5167 47.5 55.5167C46.3125 55.5167 45.3571 54.6404 45.3571 53.5512Z" fill="#EBEBEB"/>
</svg>
