<svg width="1920" height="276" viewBox="0 0 1920 276" fill="none" xmlns="http://www.w3.org/2000/svg">
<path d="M0.189453 193.388C40.8184 176.398 154.334 158.608 283.403 223.37C332.354 245.857 439.745 288.333 471.713 263.847C492.692 246.857 492.052 218.033 479.705 199.884C467.258 181.585 436.738 181.804 434.75 209.878C433.112 233.025 456.728 254.852 484.2 262.348C511.673 269.843 591.592 286.334 706.476 236.863C812.868 187.891 903.277 142.417 963.716 102.44C1024.15 62.4636 1113.56 -0.000148404 1191.99 0.499562C1231.94 0.499562 1333.84 6.49609 1391.28 91.9465C1414.76 126.427 1447.73 200.384 1471.7 224.37C1487.69 236.863 1561.61 286.334 1683.99 273.341C1735.94 266.845 1846.82 251.354 1919.75 210.378" stroke="#05141F"/>
</svg>
